
Genre:Action | Adventure | Drama
Language:English
IMDb:http://www.imdb.com/title/tt1201607/
Source:Garri Potter i dari smerti 2chast 2011 CAMRip/IMAGINE Thanks!

Format : MPEG-4
Format profile : Base Media
Codec ID : isom
File size : 1.41 GiB
Duration : 1h 56mn
Overall bit rate : 1 733 Kbps

Video
ID : 1
Format : AVC
Format/Info : Advanced Video Codec
Format profile : High@L4.1
Format settings, CABAC : Yes
Format settings, ReFrames : 3 frames
Codec ID : avc1
Codec ID/Info : Advanced Video Coding
Duration : 1h 56mn
Bit rate mode : Variable
Bit rate : 1 500 Kbps
Maximum bit rate : 5 536 Kbps
Width : 720 pixels
Height : 304 pixels
Display aspect ratio : 2.35:1
Frame rate mode : Constant
Frame rate : 25.000 fps
Color space : YUV
Chroma subsampling : 4:2:0
Bit depth : 8 bits
Scan type : Progressive
Bits/(Pixel*Frame) : 0.274
Stream size : 1.23 GiB (87%)
Writing library : x264

Audio
ID : 2
Format : AAC
Format/Info : Advanced Audio Codec
Format version : Version 4
Format profile : LC
Format settings, SBR : No
Codec ID : 40
Duration : 1h 56mn
Bit rate mode : Variable
Bit rate : 224 Kbps
Maximum bit rate : 268 Kbps
Channel(s) : 2 channels
Channel positions : Front: L R
Sampling rate : 44.1 KHz
Stream size : 187 MiB (13%)


Plot:
The final chapter begins as Harry, Ron, and Hermione continue their quest of finding and destroying the Dark Lord's three remaining Horcruxes..
 
http://www.pix2links.com/images/06360383286962419972.png
 
http://www.pix2links.com/images/74224144043232658888.png
 
http://www.pix2links.com/images/62897482896711483007.png
 
http://www.pix2links.com/images/34916343070675333823.png
 
http://www.pix2links.com/images/77270628024113215428.png
 
http://www.pix2links.com/images/41486755189950065509.png